<?xml version="1.0" encoding="UTF-8"?>
<svg width="82px" height="79px" viewBox="0 0 82 79" version="1.1" xmlns="http://www.w3.org/2000/svg" xmlns:xlink="http://www.w3.org/1999/xlink">
    <!-- Generator: Sketch 51.3 (57544) - http://www.bohemiancoding.com/sketch -->
    <title>icon</title>
    <desc>Created with Sketch.</desc>
    <defs>
        <linearGradient x1="50%" y1="0%" x2="50%" y2="100%" id="linearGradient-1">
            <stop stop-color="#EFEFF0" offset="0%"></stop>
            <stop stop-color="#D8E4F0" offset="100%"></stop>
        </linearGradient>
        <radialGradient cx="50%" cy="4.36223855%" fx="50%" fy="4.36223855%" r="8.19396973%" gradientTransform="translate(0.500000,0.043622),scale(0.937022,1.000000),rotate(90.000000),scale(1.000000,6.386964),translate(-0.500000,-0.043622)" id="radialGradient-2">
            <stop stop-color="#FFFFFF" offset="0%"></stop>
            <stop stop-color="#FFFFFF" stop-opacity="0" offset="100%"></stop>
        </radialGradient>
        <rect id="path-3" x="0" y="0" width="75.254902" height="70.5154639" rx="5.57333333"></rect>
        <linearGradient x1="50%" y1="0%" x2="50%" y2="100%" id="linearGradient-5">
            <stop stop-color="#27272C" offset="0%"></stop>
            <stop stop-color="#171D23" offset="99.1781069%"></stop>
        </linearGradient>
        <radialGradient cx="15.8516284%" cy="0%" fx="15.8516284%" fy="0%" r="33.6322453%" gradientTransform="translate(0.158516,0.000000),scale(1.000000,0.620909),rotate(74.207227),scale(1.000000,8.848055),translate(-0.158516,-0.000000)" id="radialGradient-6">
            <stop stop-color="#485F73" offset="0%"></stop>
            <stop stop-color="#191E24" stop-opacity="0" offset="100%"></stop>
        </radialGradient>
        <path d="M39.4269931,0.123912917 C34.3756603,12.7890892 31.7163458,24.2716611 31.4490497,34.5716288 L31.4490456,34.5716287 C31.4250897,35.4947403 32.1539995,36.2624901 33.0771111,36.286446 C33.0915667,36.2868211 33.1060265,36.2870087 33.120487,36.2870087 L41.1886007,36.2870032 C41.9064893,36.2870032 42.488453,36.8689669 42.488453,37.5868555 C42.488453,37.6109739 42.4877817,37.6350876 42.4864399,37.6591687 C41.8026054,49.9322746 42.8781183,61.3379141 45.7129787,71.8760871 C53.9508747,71.8760871 62.1887707,71.8760871 70.4266667,71.8760871 L70.4266667,71.8760871 C73.5047337,71.8760871 76,69.3808208 76,66.3027537 L76,5.69724625 C76,2.61917924 73.5047337,0.123912917 70.4266667,0.123912917 C60.0934422,0.123912917 49.7602176,0.123912917 39.4269931,0.123912917 Z" id="path-7"></path>
        <linearGradient x1="13.8833791%" y1="-66.1286138%" x2="61.5893295%" y2="147.351139%" id="linearGradient-8">
            <stop stop-color="#27272C" offset="0%"></stop>
            <stop stop-color="#171D23" offset="100%"></stop>
        </linearGradient>
    </defs>
    <g id="Website" stroke="none" stroke-width="1" fill="none" fill-rule="evenodd">
        <g id="web/home/light" transform="translate(-153.000000, -274.000000)">
            <g id="value" transform="translate(152.000000, 274.000000)">
                <g id="icon">
                    <g transform="translate(42.000000, 40.000000) rotate(-6.000000) translate(-42.000000, -40.000000) translate(4.000000, 4.000000)">
                        <g id="Rectangle-12" transform="translate(0.000000, 0.742268)">
                            <mask id="mask-4" fill="white">
                                <use xlink:href="#path-3"></use>
                            </mask>
                            <g id="Mask">
                                <use fill="url(#linearGradient-1)" xlink:href="#path-3"></use>
                                <use fill="url(#radialGradient-2)" style="mix-blend-mode: lighten;" xlink:href="#path-3"></use>
                            </g>
                        </g>
                        <g id="Mask">
                            <use fill="url(#linearGradient-5)" xlink:href="#path-7"></use>
                            <use fill="url(#radialGradient-6)" style="mix-blend-mode: lighten;" xlink:href="#path-7"></use>
                        </g>
                        <rect id="Rectangle-10" fill="#000000" x="19.3753292" y="18.4413685" width="3.0888206" height="8.14720499" rx="1.5444103"></rect>
                        <rect id="Rectangle-10" fill="#D9E4F0" x="52.7907521" y="18.4413685" width="3.0888206" height="8.14720499" rx="1.5444103"></rect>
                        <path d="M14.0488064,46.8277374 C13.5772628,46.2118806 13.6940096,45.3301829 14.3095677,44.8584105 C14.9251259,44.3866381 15.806396,44.5034416 16.2779397,45.1192984 C16.3107663,45.1621714 16.3961622,45.2659902 16.5347351,45.4221203 C16.7783078,45.6965536 17.0763936,46.0062373 17.4295838,46.3425927 C18.4532848,47.3174991 19.7053475,48.2975457 21.1908071,49.2151703 C25.7750396,52.0470239 31.491996,53.6611818 38.4281607,53.4192306 C45.0158154,53.1894364 50.1211371,51.6430241 53.9443527,49.2257972 C55.374841,48.3213714 56.5170627,47.359643 57.3984391,46.4068284 C57.6994443,46.0814258 57.9450372,45.7833777 58.1384342,45.5211144 C58.202646,45.4340376 58.2550175,45.3590713 58.2959463,45.29728 C58.3159854,45.2670265 58.3253869,45.2520674 58.3245477,45.2534739 C58.7220241,44.5873599 59.5839727,44.3697424 60.2497638,44.7674117 C60.9155548,45.165081 61.1330668,46.0274478 60.7355903,46.6935619 C60.6712081,46.8014574 60.559877,46.9695366 60.3980408,47.1890007 C60.1438303,47.5337324 59.8320949,47.91205 59.4593183,48.3150414 C58.4156036,49.4433522 57.0861227,50.5627492 55.4444329,51.6007071 C51.1960414,54.2867514 45.6061827,55.9799309 38.5260047,56.2269057 C31.0194974,56.4887519 24.7590112,54.7211306 19.7155744,51.6056092 C18.0587115,50.5821023 16.6537377,49.4823652 15.4935607,48.3774879 C15.0823935,47.9859191 14.7298638,47.6196731 14.4350468,47.2875029 C14.2505858,47.0796708 14.1221418,46.9235166 14.0488064,46.8277374 Z" id="Line" fill="url(#linearGradient-8)"></path>
                        <path d="M42.6489665,55.8979391 C42.5521387,54.9707635 42.4673453,54.0376779 42.3945863,53.0986822 C47.0934669,52.4929308 50.8994268,51.129393 53.9102558,49.2257972 C55.3407442,48.3213714 56.4829658,47.359643 57.3643423,46.4068284 C57.6653475,46.0814258 57.9109404,45.7833777 58.1043374,45.5211144 C58.1685492,45.4340376 58.2209207,45.3590713 58.2618495,45.29728 C58.2818886,45.2670265 58.2912901,45.2520674 58.2904508,45.2534739 C58.6879273,44.5873599 59.5498759,44.3697424 60.215667,44.7674117 C60.881458,45.165081 61.09897,46.0274478 60.7014935,46.6935619 C60.6371112,46.8014574 60.5257802,46.9695366 60.3639439,47.1890007 C60.1097334,47.5337324 59.7979981,47.91205 59.4252214,48.3150414 C58.3815067,49.4433522 57.0520259,50.5627492 55.410336,51.6007071 C52.0305379,53.7375835 47.8017304,55.2460796 42.6489665,55.8979391 Z" id="Combined-Shape" fill="#D9E4F0"></path>
                    </g>
                </g>
            </g>
        </g>
    </g>
</svg>