<?xml version="1.0" standalone="no"?>
<!DOCTYPE svg PUBLIC "-//W3C//DTD SVG 20010904//EN"
 "http://www.w3.org/TR/2001/REC-SVG-20010904/DTD/svg10.dtd">
<svg version="1.0" xmlns="http://www.w3.org/2000/svg"
 width="700.000000pt" height="700.000000pt" viewBox="0 0 700.000000 700.000000"
 preserveAspectRatio="xMidYMid meet">
<metadata>
Created by potrace 1.11, written by Peter Selinger 2001-2013
</metadata>
<g transform="translate(0.000000,700.000000) scale(0.100000,-0.100000)"
fill="#000000" stroke="none">
<path d="M3542 5968 c-116 -328 -227 -701 -300 -1013 -36 -148 -96 -453 -107
-535 -4 -30 -9 -64 -11 -75 -2 -11 -6 -41 -9 -66 -3 -25 -8 -56 -10 -70 -5
-25 -9 -62 -20 -182 -4 -37 -8 -76 -10 -85 -1 -9 -6 -94 -10 -189 -7 -165 -6
-174 14 -207 12 -19 35 -39 53 -45 19 -7 137 -11 319 -11 184 0 297 -4 312
-11 44 -20 51 -44 47 -179 -9 -357 -1 -964 13 -987 6 -9 158 13 245 36 20 6
48 12 62 15 78 16 257 83 365 137 167 84 350 228 420 329 52 75 130 90 175 33
36 -46 25 -101 -35 -172 -126 -152 -285 -272 -500 -376 -151 -74 -336 -138
-470 -165 -27 -5 -61 -12 -75 -15 -45 -9 -115 -19 -144 -19 -28 -1 -30 2 -32
39 -7 115 -17 161 -33 151 -30 -19 -428 -28 -586 -13 -334 30 -654 139 -917
313 -102 69 -258 199 -284 239 -17 26 -71 55 -102 55 -29 0 -79 -45 -85 -76
-2 -14 -2 -36 2 -49 10 -34 77 -109 170 -189 334 -283 755 -452 1230 -493 141
-12 428 -6 569 12 17 2 33 1 33 -3 1 -4 3 -16 4 -27 2 -11 5 -38 8 -60 3 -22
11 -92 18 -155 6 -63 13 -124 15 -135 2 -11 6 -40 10 -65 3 -25 16 -110 30
-190 14 -80 27 -158 30 -175 3 -16 21 -102 41 -190 20 -88 39 -173 42 -190 l7
-30 859 -1 c473 0 880 3 904 8 138 25 261 141 301 283 21 73 22 4594 1 4670
-40 147 -164 260 -312 284 -30 5 -534 10 -1120 10 l-1065 1 -62 -172z m1166
-1257 c10 -6 27 -23 37 -38 17 -25 19 -50 18 -223 -2 -238 -2 -238 -53 -273
-41 -28 -87 -22 -126 17 l-34 34 0 211 c0 183 2 215 17 238 30 46 91 61 141
34z"/>
<path d="M2272 4713 c-51 -25 -58 -60 -57 -281 1 -170 3 -201 18 -223 37 -56
122 -62 168 -13 24 25 24 29 27 234 3 174 1 214 -13 239 -27 52 -88 71 -143
44z"/>
</g>
</svg>
