<?xml version="1.0" encoding="UTF-8"?>
<svg width="325px" height="325px" viewBox="0 0 325 325" version="1.1" xmlns="http://www.w3.org/2000/svg" xmlns:xlink="http://www.w3.org/1999/xlink">
    <!-- Generator: Sketch 52.2 (67145) - http://www.bohemiancoding.com/sketch -->
    <title>safari-pinned-tab</title>
    <desc>Created with Sketch.</desc>
    <defs>
        <linearGradient x1="50%" y1="0%" x2="50%" y2="100%" id="linearGradient-1">
            <stop stop-color="#27272C" offset="0%"></stop>
            <stop stop-color="#171D23" offset="99.1781069%"></stop>
        </linearGradient>
        <radialGradient cx="15.8516284%" cy="0%" fx="15.8516284%" fy="0%" r="35.7289358%" gradientTransform="translate(0.158516,0.000000),scale(1.000000,0.581827),rotate(75.156026),scale(1.000000,8.848055),translate(-0.158516,-0.000000)" id="radialGradient-2">
            <stop stop-color="#485F73" offset="0%"></stop>
            <stop stop-color="#191E24" stop-opacity="0" offset="100%"></stop>
        </radialGradient>
        <path d="M83.3888725,5.52581442e-17 C116.164992,3.97167912e-17 148.941111,2.41754381e-17 181.717231,-7.10542736e-15 C191.773759,-8.95278163e-15 199.926186,8.15242694 199.926186,18.2089552 L199.926186,225.791045 C199.926186,235.847573 191.773759,244 181.717231,244 C155.617728,244 129.518226,244 103.418723,244 C94.3714866,208.107804 90.9478683,169.256456 93.1478684,127.445955 C93.1517789,127.371635 93.1537352,127.297226 93.1537352,127.222804 C93.1537352,124.877358 91.2523759,122.975999 88.9069302,122.975999 L63.4231245,122.976 C63.3806658,122.976 63.3382086,122.975505 63.2957615,122.974515 C60.2796195,122.904174 57.8915756,120.402086 57.9619229,117.385944 C58.7802348,82.297499 67.2558846,43.168851 83.3888725,5.52581442e-17 Z M94.2813285,187.118848 C110.988205,185.001925 124.699326,180.103062 135.657692,173.163525 C140.980565,169.792741 145.291159,166.157483 148.67521,162.493277 C149.883869,161.184557 150.894612,159.955964 151.718843,158.836443 C152.243567,158.123731 152.604537,157.577891 152.813284,157.227498 C154.102028,155.064283 153.396786,152.263735 151.238082,150.972298 C149.079379,149.680861 146.284671,150.387577 144.995928,152.550792 C144.998649,152.546224 144.968166,152.594804 144.903193,152.693053 C144.770489,152.893721 144.600684,153.137175 144.39249,153.419958 C143.765436,154.271662 142.969146,155.239578 141.993193,156.296327 C139.135494,159.390607 135.432053,162.513834 130.793961,165.45097 C121.031909,171.632925 108.691793,176.061034 93.4565481,178.028221 C93.6924557,181.077623 93.9673825,184.107832 94.2813285,187.118848 Z M132.171642,65.4780876 C129.406097,65.4780876 127.164179,67.7110935 127.164179,70.4857716 L127.164179,86.928571 C127.164179,89.6942385 129.411724,91.936255 132.171642,91.936255 C134.937187,91.936255 137.179104,89.7032491 137.179104,86.928571 L137.179104,70.4857716 C137.179104,67.7201041 134.93156,65.4780876 132.171642,65.4780876 Z" id="path-3"></path>
        <linearGradient x1="13.8833791%" y1="-66.1286138%" x2="61.5893295%" y2="147.351139%" id="linearGradient-4">
            <stop stop-color="#27272C" offset="0%"></stop>
            <stop stop-color="#171D23" offset="100%"></stop>
        </linearGradient>
    </defs>
    <g id="Icon" stroke="none" stroke-width="1" fill="none" fill-rule="evenodd">
        <g id="favicon">
            <rect id="background" fill-rule="nonzero" x="0" y="0" width="325" height="325"></rect>
            <g transform="translate(84.000000, 40.000000)">
                <g id="Combined-Shape">
                    <use fill="url(#linearGradient-1)" xlink:href="#path-3"></use>
                    <use fill="url(#radialGradient-2)" style="mix-blend-mode: lighten;" xlink:href="#path-3"></use>
                </g>
                <rect id="Rectangle-10" fill="#000000" x="18.8208955" y="65.4780876" width="10.0149254" height="26.4581673" rx="5.00746269"></rect>
                <path d="M1.55063756,157.663236 C0.0217451263,155.663232 0.400274964,152.799906 2.39610762,151.267818 C4.39194027,149.73573 7.24929452,150.115051 8.77818696,152.115055 C8.88462123,152.254286 9.16150137,152.591439 9.61079812,153.098473 C10.4005372,153.989699 11.367025,154.995402 12.5121784,156.087721 C15.8313382,159.253744 19.8909183,162.43646 24.7072444,165.416459 C39.5707642,174.612945 58.1069303,179.854946 80.5961522,179.069206 C83.5611179,178.965615 87.8021424,178.629205 93.3192258,178.059977 L93.9967837,187.168323 C88.3076421,187.741583 83.9465118,188.081199 80.9133929,188.187172 C56.5749416,189.037521 36.2764814,183.297145 19.9240772,173.179444 C14.5520076,169.85559 9.99664187,166.284178 6.23498407,162.696073 C4.90185128,161.424447 3.75883943,160.235058 2.80295011,159.156331 C2.2048698,158.481393 1.78841378,157.97428 1.55063756,157.663236 Z" id="Line" fill="url(#linearGradient-4)"></path>
            </g>
        </g>
    </g>
</svg>