<?xml version="1.0" encoding="UTF-8"?>
<svg width="882px" height="882px" viewBox="0 0 882 882" version="1.1" xmlns="http://www.w3.org/2000/svg" xmlns:xlink="http://www.w3.org/1999/xlink">
    <!-- Generator: Sketch 52.1 (67048) - http://www.bohemiancoding.com/sketch -->
    <title>eye</title>
    <desc>Created with Sketch.</desc>
    <g id="Website" stroke="none" stroke-width="1" fill="none" fill-rule="evenodd">
        <g id="eye" transform="translate(-201.000000, -171.000000)" fill-rule="nonzero">
            <g id="ovals" transform="translate(621.261373, 617.840081) rotate(59.000000) translate(-621.261373, -617.840081) translate(174.761373, 161.340081)" stroke="#2D2D2D" stroke-width="1.5">
                <path d="M379.392668,887.319462 C478.467234,932.009926 587.084765,913.528578 682.702513,840.854699 C775.868857,770.044 848.247576,653.809275 880.309097,520.312962 C911.331862,391.141778 877.844347,260.500379 794.375341,158.6352 C714.002674,60.5487785 596.248682,0.953310435 477.656647,0.953310435 C354.548701,0.953310435 246.146169,36.6794236 164.099385,105.498393 C77.8143826,177.872284 22.8228215,284.742721 5.35625663,420.757562 C-11.2618046,550.164975 22.2022989,646.345417 101.305164,723.352785 C134.852285,756.011217 176.426288,785.231436 228.559337,814.144051 C268.682442,836.396037 305.905492,854.170934 379.392668,887.319462 Z" id="Oval"></path>
                <path d="M458.727444,465.059233 C484.60723,478.274758 512.977233,472.810085 538.005858,451.274936 C562.456929,430.236726 581.469462,395.671769 589.893948,355.961792 C598.037078,317.578028 589.247361,278.759074 567.341279,248.49438 C546.26447,219.375381 515.405009,201.694782 484.355531,201.694782 C417.05068,201.694782 369.503803,246.842901 360.475857,326.429287 C356.113775,364.88348 364.885352,393.423636 385.622235,416.277234 C394.423434,425.976816 405.338093,434.661276 419.033081,443.259465 C429.58532,449.884526 439.38137,455.180151 458.727444,465.059233 Z" id="Oval"></path>
                <path d="M451.149676,643.552955 C532.531091,679.252908 620.196839,680.391564 689.377768,646.184915 C763.848036,609.362941 811.058043,535.348723 819.096549,432.373605 C827.220769,328.300475 796.537023,239.188428 733.24442,171.064882 C674.643891,107.991543 589.943562,65.4020924 493.102579,48.6761139 C306.33077,16.417651 163.233218,140.77077 134.738796,356.559308 C124.805597,431.783526 140.694949,484.14149 180.801989,522.53186 C198.230283,539.214185 220.252251,553.387239 248.187695,566.609971 C270.633218,577.234149 294.379314,586.333274 332.742787,599.624239 C337.285955,601.198213 362.332729,609.810302 369.573552,612.327578 C383.967511,617.331645 395.73257,621.540331 407.039593,625.770059 C423.013254,631.745482 437.46121,637.548173 451.149676,643.552955 Z" id="Oval"></path>
                <path d="M470.01621,496.293647 C517.005639,516.311501 567.608889,516.968271 607.522776,497.827896 C650.473118,477.231413 677.688265,435.812702 682.305502,378.14579 C686.973694,319.842471 669.24529,269.924438 632.69652,231.750699 C598.846921,196.396137 549.920197,172.508172 493.979743,163.111746 C386.151635,144.99965 303.588791,214.616925 287.181112,335.526285 C281.467579,377.629718 290.630918,406.903204 313.745937,428.378181 C323.798741,437.717724 336.507424,445.658793 352.63425,453.071909 C365.602488,459.033098 379.328642,464.141992 401.500788,471.603853 C404.136446,472.490863 418.629228,477.331509 422.817529,478.745908 C431.150864,481.560094 437.962032,483.926906 444.508627,486.305772 C453.744199,489.661744 462.099316,492.92099 470.01621,496.293647 Z" id="Oval" transform="translate(484.289804, 336.006693) rotate(-136.000000) translate(-484.289804, -336.006693) "></path>
                <path d="M469.234142,594.780249 C541.067242,607.583167 620.359159,597.343827 677.855108,566.887267 C741.879287,532.972593 773.240013,478.10402 760.747297,408.70533 C748.17935,338.888718 695.167555,259.767247 620.570519,192.564993 C550.361549,129.315817 471.440242,86.5349931 416.732087,83.1090792 C358.026695,79.4328518 307.364167,98.5080085 273.802162,139.419824 C236.296271,185.139203 221.241221,256.091472 232.717904,350.182813 C244.496996,446.753458 267.577212,503.436874 307.328646,537.65489 C325.589902,553.374171 347.735433,564.810303 376.280945,573.922325 C399.771769,581.420838 425.065967,586.908091 469.234142,594.780249 Z" id="Oval"></path>
            </g>
            <circle id="Oval" fill="#2D2D2D" cx="801" cy="628" r="19"></circle>
        </g>
    </g>
</svg>