<?xml version="1.0" encoding="UTF-8"?>
<svg width="530px" height="551px" viewBox="0 0 530 551" version="1.1" xmlns="http://www.w3.org/2000/svg" xmlns:xlink="http://www.w3.org/1999/xlink">
    <!-- Generator: Sketch 52.1 (67048) - http://www.bohemiancoding.com/sketch -->
    <title>illustration</title>
    <g id="Website" stroke="none" stroke-width="1" fill="none" fill-rule="evenodd">
        <g id="web/press/light" transform="translate(-111.000000, -151.000000)" fill-rule="nonzero">
            <g id="illustration" transform="translate(111.000000, 151.000000)">
                <g id="Group-4" transform="translate(109.000000, 0.000000)" stroke="#2D2D2D" stroke-width="1.54069767">
                    <g id="Group-3" transform="translate(0.000000, 35.912322)">
                        <ellipse id="Oval" cx="156" cy="451.436019" rx="90.6443798" ry="24.8813099"></ellipse>
                        <ellipse id="Oval" cx="156" cy="392.697867" rx="154.32655" ry="42.8374711"></ellipse>
                        <ellipse id="Oval" cx="156" cy="84.3898104" rx="154.32655" ry="42.8374711"></ellipse>
                        <ellipse id="Oval" cx="156" cy="25.6516588" rx="90.6443798" ry="24.8813099"></ellipse>
                    </g>
                    <ellipse id="Oval" cx="159.594961" cy="6.66943128" rx="5.90600775" ry="5.89908244"></ellipse>
                    <ellipse id="Oval" cx="159.676357" cy="543.669431" rx="5.90600775" ry="5.89908244"></ellipse>
                </g>
                <g id="Group-4" transform="translate(391.000000, 70.000000)" stroke="#3A3B39" stroke-linecap="round" stroke-linejoin="round" stroke-width="1.5">
                    <path d="M0,1 L76,1" id="Path-4"></path>
                    <path d="M89,1 L101,1" id="Path-4"></path>
                </g>
                <g id="Group-4" transform="translate(101.500000, 476.000000) scale(-1, 1) translate(-101.500000, -476.000000) translate(51.000000, 475.000000)" stroke="#3A3B39" stroke-linecap="round" stroke-linejoin="round" stroke-width="1.5">
                    <path d="M0,1 L76,1" id="Path-4"></path>
                    <path d="M89,1 L101,1" id="Path-4"></path>
                </g>
                <ellipse id="Oval" stroke="#2D2D2D" stroke-width="1.54069767" cx="265" cy="269.586493" rx="263.716085" ry="73.6194616"></ellipse>
                <ellipse id="Oval" stroke="#2D2D2D" stroke-width="1.54069767" cx="265" cy="192.379147" rx="207.223837" ry="57.7154332"></ellipse>
                <ellipse id="Oval" stroke="#2D2D2D" stroke-width="1.54069767" cx="265" cy="356.793839" rx="207.223837" ry="57.7154332"></ellipse>
                <g id="Group-5" transform="translate(192.000000, 163.000000)">
                    <path d="M74.5089256,222.75074 C55.0178513,186.033082 72.9400964,125.842025 74.5089256,106.814733 C76.0777548,87.7874411 62.8744496,111.072876 46.7300932,104.696116 C30.5857368,98.3193554 65.0105391,11.4281581 72.1770347,0.937284225" id="Path-2" stroke="#3A3B39" stroke-width="1.5" stroke-linecap="round" stroke-linejoin="round"></path>
                    <ellipse id="Oval" fill="#2D2D2D" cx="100.676357" cy="58.6694313" rx="6.67635659" ry="6.66943128"></ellipse>
                    <ellipse id="Oval" stroke="#2D2D2D" stroke-width="1.54069767" fill="#2D2D2D" cx="6.67635659" cy="58.6694313" rx="5.90600775" ry="5.89908244"></ellipse>
                </g>
            </g>
        </g>
    </g>
</svg>